<svg class="svg-icon" style="width: 1em; height: 1em;vertical-align: middle;fill: currentColor;overflow: hidden;" viewBox="0 0 1024 1024" version="1.1"
    xmlns="http://www.w3.org/2000/svg">
    <path d="M507.22304 504.76544m-485.53984 0a485.53984 485.53984 0 1 0 971.07968 0 485.53984 485.53984 0 1 0-971.07968 0Z" fill="#F2F2F2" />
    <path d="M305.31072 472.44288c-0.0256 133.57568 108.24192 241.87392 241.81248 241.89952 133.57568 0.0256 241.87392-108.24192 241.89952-241.81248v-0.08704c0-133.57568-108.28288-241.85856-241.85856-241.85856S305.31072 338.8672 305.31072 472.44288z" fill="#4C9173" />
    <path d="M631.2704 418.41664c8.7552-6.07232 44.45696-1.78688 55.16288-15.5392 10.71104-13.75232 4.13696-27.93984 3.89632-37.31456-0.1536-5.88288-17.19296-2.4832-22.54848-16.23552-5.35552-13.75232-9.12896-26.53696-15.3088-27.87328-15.50336-3.34848-29.83424 16.49152-53.17632 12.02176-4.28032-0.8192 0 0-10.71104-13.75232s15.46752-38.8096 5.35552-41.25696C520.17152 260.608 460.89216 290.048 460.89216 290.048s0.78336 0.88576 0.78336 32.97792-7.85408 43.0336 13.56288 88.87296c21.41696 45.83936 40.56576-1.88928 83.39968 34.78528 42.83904 36.67456 26.112 49.23904 21.98528 55.35232-7.31136 10.83392 18.66752 28.55936 18.66752 28.55936l37.48352 22.92224c37.48352 22.92224-8.87296 50.54464-3.54816 61.97248 4.08064 8.74496 14.8736 9.85088 41.03168-20.71552 4.5824-5.35552 21.41696-18.33472 10.71104-82.51392-10.71104-64.1792-10.30144-29.26592-52.92032-61.64992-9.81504-7.45984-37.21216-0.91136-43.4688-7.11168-62.22848-61.6704 31.06304-17.01888 42.69056-25.08288zM375.30112 476.33408a17.31072 17.31072 0 1 0 17.3056 17.32608v-0.01536a17.3056 17.3056 0 0 0-17.3056-17.31072zM492.27776 562.46784a27.40736 27.40736 0 0 0-27.41248 27.39712v0.01536a27.40736 27.40736 0 0 0 54.8096 0.01536v-0.01536a27.40736 27.40736 0 0 0-27.39712-27.41248z" fill="#FFFFFF" />
    <path d="M432.99328 418.64704m-5.27872 0a5.27872 5.27872 0 1 0 10.55744 0 5.27872 5.27872 0 1 0-10.55744 0Z" fill="#FFFFFF" />
    <path d="M742.08256 470.07744a5.27872 5.27872 0 0 0-5.28896 5.2736v0.01536a5.27872 5.27872 0 1 0 10.56256 0.01536v-0.01536a5.27872 5.27872 0 0 0-5.2736-5.28896z" fill="#FFFFFF" />
    <path d="M627.87072 169.51808a9.69216 9.69216 0 0 0-2.69824-0.34816l0.7424-2.49344c-165.4528-44.40576-337.81248 50.944-387.15904 216.1152-49.22368 164.7616 42.01984 338.55488 203.96032 392.64768v51.92704c0 5.17632 5.05856 9.37472 11.29472 9.37472 6.24128 0 11.29472-4.1984 11.29472-9.37472v-65.60768c0-5.17632-5.05856-9.37472-11.29472-9.37472a12.4928 12.4928 0 0 0-6.32832 1.8176c-149.69856-51.13344-233.81504-212.33152-188.14464-365.20448 45.04064-150.75328 200.04864-239.0016 351.27296-203.66848l-18.33472 64.1792c-2.28352 8.00256 1.0496 15.96928 7.4496 17.79712 6.4 1.82784 13.44-3.1744 15.72352-11.17696l19.6608-68.81792c2.29376-7.99232-1.03936-15.96416-7.43936-17.792z" fill="#AAA5A5" />
    <path d="M713.09824 835.23584a16.56832 16.56832 0 0 1-16.56832 16.56832h-373.5552a16.56832 16.56832 0 0 1 0-33.13664h373.5552a16.56832 16.56832 0 0 1 16.56832 16.56832z" fill="#8A8A8A" />
</svg>